<svg xmlns="http://www.w3.org/2000/svg" viewBox="0 0 330 760">
<g fill="none" stroke="#ad8954" stroke-width="2.2" stroke-linecap="round" stroke-linejoin="round">
  <path d="M144 756C165 632 169 515 156 392"/>
  <path d="M156 393C111 388 76 360 75 326C74 300 96 282 123 289C129 260 160 248 185 268C205 241 243 247 257 275C288 264 316 285 315 315C342 326 346 356 323 376C294 402 248 405 206 398C185 395 168 394 156 393Z"/>
  <path d="M123 289C143 313 153 350 156 393M185 268C189 313 179 356 156 393M257 275C228 310 191 357 156 393M315 315C266 337 210 370 156 393"/>
  <ellipse cx="159" cy="386" rx="31" ry="13"/>
  <path d="M134 386l11-8m1 16l8-13m5 13l4-14m7 13l1-12m9 9l-4-10"/>

  <path d="M150 620C104 594 73 559 58 515M144 600C97 602 58 588 29 559C77 550 118 563 150 589M155 557C193 528 234 512 279 512C248 548 209 571 160 578"/>

  <path d="M176 757C183 655 191 571 213 500"/>
  <path d="M213 500C192 483 187 458 197 438C208 418 232 413 251 428C272 445 273 472 255 491C242 504 226 507 213 500Z"/>
  <path d="M198 438C213 453 232 472 255 491"/>

  <path d="M88 756C86 690 80 634 67 585"/>
  <path d="M67 585C50 572 45 552 53 536C62 520 81 517 96 528C113 541 115 563 100 578C90 587 77 590 67 585Z"/>

  <path d="M161 393C149 313 144 235 151 154"/>
  <path d="M151 154C117 150 91 131 89 107C87 87 103 73 123 78C128 56 151 47 171 61C188 41 216 45 226 66C249 59 271 74 271 96C293 104 297 126 281 142C258 163 223 165 190 160C174 158 161 156 151 154Z"/>
  <path d="M123 78C139 97 148 123 151 154M171 61C174 94 166 128 151 154M226 66C204 92 177 127 151 154M271 96C234 112 192 138 151 154"/>
  <ellipse cx="153" cy="149" rx="24" ry="10"/>
  <path d="M134 149l8-6m1 12l6-10m4 10l3-10m5 9l1-8m7 6l-3-7"/>
</g></svg>