<svg xmlns="http://www.w3.org/2000/svg" viewBox="0 0 1200 310">
<g fill="none" stroke="#ad8954" stroke-width="2.15" stroke-linecap="round" stroke-linejoin="round">
  <path d="M80 306C101 248 111 195 109 131"/>
  <path d="M109 132C72 128 45 106 46 78C47 57 65 43 86 50C90 25 115 14 136 30C154 7 187 12 199 36C225 25 251 42 251 68C278 76 286 102 267 122C242 148 198 151 158 142C137 137 121 134 109 132Z"/>
  <path d="M86 50C102 70 108 98 109 132M136 30C139 68 129 104 109 132M199 36C175 66 144 105 109 132M251 68C208 88 158 113 109 132"/>
  <ellipse cx="111" cy="127" rx="27" ry="11"/>
  <path d="M90 127l9-7m1 14l7-12m4 12l3-13m6 12l0-11m8 9l-4-10"/>

  <path d="M320 306C316 254 309 211 297 176"/>
  <path d="M297 176C277 164 270 144 278 127C286 111 304 107 320 117C338 129 341 151 327 168C318 178 307 181 297 176Z"/>
  <path d="M279 127C292 138 307 151 327 168M295 176C273 194 257 216 247 243"/>
  <path d="M289 253C251 244 223 225 205 196C245 199 277 215 298 241"/>

  <path d="M552 306C568 234 574 169 570 91"/>
  <path d="M570 92C529 88 496 65 493 37C490 15 509 0 533 7C539-17 568-26 591-8C612-29 646-19 655 8C684 0 710 20 707 47C733 59 734 87 712 105C683 129 638 128 601 114C586 108 576 99 570 92Z"/>
  <path d="M533 7C555 30 567 61 570 92M591-8C593 33 585 68 570 92M655 8C627 39 599 71 570 92M707 47C663 62 615 81 570 92"/>
  <ellipse cx="572" cy="87" rx="29" ry="12"/>
  <path d="M548 87l10-7m2 14l7-12m4 13l4-13m6 12l1-11m8 9l-4-10"/>
  <path d="M560 282C524 258 500 226 488 187M555 265C518 266 486 255 462 232C499 224 532 234 559 255M566 236C596 211 629 197 665 195C642 225 610 244 570 250"/>

  <path d="M772 306C775 257 778 218 788 181"/>
  <path d="M788 181C771 168 766 149 774 134C783 118 801 115 816 126C833 139 834 160 819 175C809 184 798 186 788 181Z"/>
  <path d="M775 134C788 146 801 158 819 175"/>

  <path d="M957 306C947 250 943 202 947 151"/>
  <path d="M947 151C911 147 883 127 881 101C879 80 896 65 918 71C924 48 950 38 972 53C990 32 1020 37 1031 59C1056 51 1080 67 1080 91C1104 100 1109 124 1091 141C1066 164 1028 167 992 161C974 158 959 154 947 151Z"/>
  <path d="M918 71C935 91 944 119 947 151M972 53C975 88 966 124 947 151M1031 59C1008 86 978 124 947 151M1080 91C1041 108 995 135 947 151"/>
  <ellipse cx="949" cy="146" rx="26" ry="10"/>
  <path d="M929 146l9-6m1 13l7-11m4 11l3-11m6 10l0-9m8 7l-3-8"/>
  <path d="M952 276C981 252 1001 222 1010 185M957 260C992 260 1022 249 1045 227C1009 221 978 230 954 250M946 230C918 207 888 193 854 189C875 218 904 237 942 244"/>

  <path d="M1140 306C1142 269 1142 238 1137 210"/>
  <path d="M1137 210C1123 199 1119 184 1126 171C1134 158 1149 156 1161 166C1175 177 1175 194 1162 206C1153 214 1145 216 1137 210Z"/>
  <path d="M22 306H1178"/>
</g></svg>